<?xml version="1.0" standalone="no"?>
<!DOCTYPE svg PUBLIC "-//W3C//DTD SVG 20010904//EN"
 "http://www.w3.org/TR/2001/REC-SVG-20010904/DTD/svg10.dtd">
<svg version="1.0" xmlns="http://www.w3.org/2000/svg"
 width="300.000000pt" height="300.000000pt" viewBox="0 0 300.000000 300.000000"
 preserveAspectRatio="xMidYMid meet">
<metadata>
Created by potrace 1.11, written by Peter Selinger 2001-2013
</metadata>
<g transform="translate(0.000000,300.000000) scale(0.100000,-0.100000)"
fill="#000000" stroke="none">
<path d="M1447 2893 c-3 -2 -21 -5 -41 -7 -20 -2 -60 -15 -89 -29 -37 -18 -70
-25 -116 -26 -35 -1 -66 -3 -70 -6 -4 -2 -18 -6 -32 -9 -13 -3 -33 -7 -44 -9
-25 -6 -97 -47 -107 -62 -4 -5 -8 -6 -8 -1 0 6 -12 -2 -27 -16 -16 -13 -44
-31 -63 -38 -19 -7 -44 -22 -56 -32 -11 -10 -24 -18 -29 -18 -10 0 -165 -160
-165 -171 0 -4 -7 -15 -16 -23 -19 -19 -122 -219 -129 -250 -2 -11 -9 -39 -15
-61 -6 -22 -13 -73 -15 -112 -2 -40 -5 -76 -7 -80 -15 -28 6 -316 25 -363 4
-8 8 -28 11 -45 2 -16 5 -32 7 -35 1 -3 3 -9 3 -15 1 -5 11 -30 22 -55 12 -25
29 -62 39 -84 18 -39 139 -223 160 -241 6 -5 29 -32 50 -60 22 -27 50 -61 62
-75 12 -14 30 -34 40 -46 76 -88 205 -224 358 -378 l181 -181 69 -3 c39 -1 75
-2 80 -2 6 -1 36 0 68 2 l58 3 162 167 c89 91 198 205 242 253 44 48 87 95 95
104 9 9 43 48 75 86 33 39 63 72 66 75 13 12 129 170 172 236 82 125 112 199
132 321 27 168 27 381 0 478 -9 33 -17 65 -19 70 -15 63 -106 254 -131 275 -8
7 -15 16 -15 21 0 22 -147 172 -207 212 -24 15 -50 27 -58 27 -9 0 -27 11 -40
25 -14 13 -25 22 -25 19 0 -3 -15 6 -32 19 -70 51 -158 76 -266 78 -33 0 -66
8 -85 19 -18 10 -51 23 -74 29 -43 12 -189 22 -196 14z"/>
<path d="M1395 223 c8 -12 15 -30 15 -40 0 -21 23 -90 34 -100 11 -12 56 -11
56 1 0 6 4 5 9 -3 6 -9 11 -10 15 -2 4 6 13 8 19 4 35 -22 50 1 70 111 1 6 5
13 9 16 3 3 8 12 10 20 2 11 -19 14 -124 15 l-127 0 14 -22z"/>
<path d="M1786 238 c3 -5 10 -6 15 -3 13 9 11 12 -6 12 -8 0 -12 -4 -9 -9z"/>
<path d="M1820 236 c0 -2 8 -10 18 -17 15 -13 16 -12 3 4 -13 16 -21 21 -21
13z"/>
<path d="M1860 196 c0 -8 4 -17 9 -20 5 -4 7 3 4 14 -6 23 -13 26 -13 6z"/>
<path d="M1715 180 c-3 -5 -1 -10 4 -10 6 0 11 5 11 10 0 6 -2 10 -4 10 -3 0
-8 -4 -11 -10z"/>
<path d="M1770 153 c0 -10 5 -11 19 -4 10 6 21 7 25 4 3 -3 6 -2 6 4 0 6 -11
11 -25 11 -15 0 -25 -6 -25 -15z"/>
<path d="M1710 156 c0 -2 7 -9 15 -16 13 -11 14 -10 9 4 -5 14 -24 23 -24 12z"/>
<path d="M1860 135 c-7 -13 -22 -27 -32 -31 -11 -3 -18 -8 -15 -10 9 -9 36 8
52 33 9 13 15 27 12 29 -2 2 -10 -7 -17 -21z"/>
<path d="M1810 130 c0 -5 5 -10 11 -10 5 0 7 5 4 10 -3 6 -8 10 -11 10 -2 0
-4 -4 -4 -10z"/>
</g>
</svg>
